{
  "source": "C:\\Users\\Peter\\Desktop\\stuff\\MIUN\\quantitative_research\\video_compression\\videos\\UVG\\HoneyBee_1920x1080_120fps_420_8bit_YUV.y4m",
  "output": "C:\\Users\\Peter\\Desktop\\stuff\\MIUN\\quantitative_research\\video_compression\\compressed_videos\\UVG\\h264\\12\\HoneyBee_1920x1080_120fps_420_8bit_YUV_h264.mp4",
  "codec": "h264",
  "ok": "[yuv4mpegpipe @ 000001f167915e80] Stream #0: not enough frames to estimate rate; consider increasing probesize\nInput #0, yuv4mpegpipe, from 'C:\\Users\\Peter\\Desktop\\stuff\\MIUN\\quantitative_research\\video_compression\\videos\\UVG\\HoneyBee_1920x1080_120fps_420_8bit_YUV.y4m':\n  Duration: 00:00:05.00, start: 0.000000, bitrate: 2985989 kb/s\n  Stream #0:0: Video: rawvideo (I420 / 0x30323449), yuv420p(progressive), 1920x1080, 120 fps, 120 tbr, 120 tbn\n[out#0/mp4 @ 000001f167919d00] Codec AVOption b:a (set bitrate (in bits/s)) has not been used for any stream. The most likely reason is either wrong type (e.g. a video option with no video streams) or that it is a private option of some decoder which was not actually used for any stream.\nStream mapping:\n  Stream #0:0 -> #0:0 (rawvideo (native) -> h264 (libx264))\nPress [q] to stop, [?] for help\n[libx264 @ 000001f16791cdc0] using cpu capabilities: MMX2 SSE2Fast SSSE3 SSE4.2 AVX FMA3 BMI2 AVX2\n[libx264 @ 000001f16791cdc0] profile High, level 5.1, 4:2:0, 8-bit\n[libx264 @ 000001f16791cdc0] 264 - core 165 r3222 b35605a - H.264/MPEG-4 AVC codec - Copyleft 2003-2025 - http://www.videolan.org/x264.html - options: cabac=1 ref=5 deblock=1:0:0 analyse=0x3:0x113 me=hex subme=8 psy=1 psy_rd=1.00:0.00 mixed_ref=1 me_range=16 chroma_me=1 trellis=2 8x8dct=1 cqm=0 deadzone=21,11 fast_pskip=1 chroma_qp_offset=-2 threads=18 lookahead_threads=3 sliced_threads=0 nr=0 decimate=1 interlaced=0 bluray_compat=0 constrained_intra=0 bframes=3 b_pyramid=2 b_adapt=1 b_bias=0 direct=3 weightb=1 open_gop=0 weightp=2 keyint=250 keyint_min=25 scenecut=40 intra_refresh=0 rc_lookahead=50 rc=cbr mbtree=1 bitrate=12000 ratetol=1.0 qcomp=0.60 qpmin=0 qpmax=69 qpstep=4 vbv_maxrate=12000 vbv_bufsize=12000 nal_hrd=none filler=0 ip_ratio=1.40 aq=1:1.00\nOutput #0, mp4, to 'C:\\Users\\Peter\\Desktop\\stuff\\MIUN\\quantitative_research\\video_compression\\compressed_videos\\UVG\\h264\\12\\HoneyBee_1920x1080_120fps_420_8bit_YUV_h264.mp4':\n  Metadata:\n    encoder         : Lavf62.3.100\n  Stream #0:0: Video: h264 (avc1 / 0x31637661), yuv420p(tv, progressive), 1920x1080, q=2-31, 12000 kb/s, 120 fps, 15360 tbn\n    Metadata:\n      encoder         : Lavc62.11.100 libx264\n    Side data:\n      cpb: bitrate max/min/avg: 12000000/0/12000000 buffer size: 12000000 vbv_delay: N/A\nframe=    0 fps=0.0 q=0.0 size=       0KiB time=N/A bitrate=N/A speed=N/A elapsed=0:00:02.76    \nframe=    0 fps=0.0 q=0.0 size=       0KiB time=N/A bitrate=N/A speed=N/A elapsed=0:00:03.27    \nframe=    0 fps=0.0 q=0.0 size=       0KiB time=N/A bitrate=N/A speed=N/A elapsed=0:00:03.78    \nframe=    0 fps=0.0 q=0.0 size=       0KiB time=N/A bitrate=N/A speed=N/A elapsed=0:00:04.30    \nframe=    0 fps=0.0 q=0.0 size=       0KiB time=N/A bitrate=N/A speed=N/A elapsed=0:00:04.81    \nframe=    0 fps=0.0 q=0.0 size=       0KiB time=N/A bitrate=N/A speed=N/A elapsed=0:00:05.33    \nframe=   14 fps=2.4 q=29.0 size=       0KiB time=00:00:00.10 bitrate=   3.8kbits/s speed=0.0171x elapsed=0:00:05.85    \nframe=   25 fps=3.9 q=27.0 size=       0KiB time=00:00:00.19 bitrate=   2.0kbits/s speed=0.0301x elapsed=0:00:06.36    \nframe=   29 fps=4.2 q=27.0 size=       0KiB time=00:00:00.22 bitrate=   1.7kbits/s speed=0.0327x elapsed=0:00:06.88    \nframe=   37 fps=5.0 q=27.0 size=       0KiB time=00:00:00.29 bitrate=   1.3kbits/s speed=0.0394x elapsed=0:00:07.40    \nframe=   38 fps=4.8 q=27.0 size=       0KiB time=00:00:00.30 bitrate=   1.3kbits/s speed=0.0379x elapsed=0:00:07.91    \nframe=   45 fps=5.3 q=27.0 size=     256KiB time=00:00:00.35 bitrate=5853.6kbits/s speed=0.0425x elapsed=0:00:08.43    \nframe=   57 fps=6.4 q=27.0 size=     256KiB time=00:00:00.45 bitrate=4576.4kbits/s speed=0.0513x elapsed=0:00:08.93    \nframe=   57 fps=6.0 q=27.0 size=     256KiB time=00:00:00.45 bitrate=4576.4kbits/s speed=0.0484x elapsed=0:00:09.46    \nframe=   57 fps=5.7 q=27.0 size=     256KiB time=00:00:00.45 bitrate=4576.4kbits/s speed=0.0459x elapsed=0:00:09.98    \nframe=   73 fps=7.0 q=26.0 size=     512KiB time=00:00:00.59 bitrate=7089.6kbits/s speed=0.0564x elapsed=0:00:10.48    \nframe=   77 fps=7.0 q=26.0 size=     512KiB time=00:00:00.62 bitrate=6711.5kbits/s speed=0.0568x elapsed=0:00:11.00    \nframe=   77 fps=6.7 q=26.0 size=     512KiB time=00:00:00.62 bitrate=6711.5kbits/s speed=0.0542x elapsed=0:00:11.52    \nframe=   81 fps=6.7 q=26.0 size=     512KiB time=00:00:00.65 bitrate=6371.7kbits/s speed=0.0547x elapsed=0:00:12.03    \nframe=   85 fps=6.8 q=26.0 size=     512KiB time=00:00:00.69 bitrate=6064.6kbits/s speed=0.0551x elapsed=0:00:12.55    \nframe=  101 fps=7.7 q=26.0 size=     768KiB time=00:00:00.82 bitrate=7626.5kbits/s speed=0.0631x elapsed=0:00:13.06    \nframe=  105 fps=7.7 q=26.0 size=     768KiB time=00:00:00.85 bitrate=7330.3kbits/s speed=0.0632x elapsed=0:00:13.58    \nframe=  109 fps=7.7 q=26.0 size=     768KiB time=00:00:00.89 bitrate=7056.3kbits/s speed=0.0632x elapsed=0:00:14.09    \nframe=  113 fps=7.7 q=26.0 size=    1024KiB time=00:00:00.92 bitrate=9069.2kbits/s speed=0.0633x elapsed=0:00:14.62    \nframe=  113 fps=7.5 q=26.0 size=    1024KiB time=00:00:00.92 bitrate=9069.2kbits/s speed=0.0611x elapsed=0:00:15.13    \nframe=  121 fps=7.7 q=26.0 size=    1024KiB time=00:00:00.99 bitrate=8459.5kbits/s speed=0.0634x elapsed=0:00:15.64    \nframe=  133 fps=8.2 q=26.0 size=    1280KiB time=00:00:01.09 bitrate=9605.6kbits/s speed=0.0675x elapsed=0:00:16.17    \nframe=  133 fps=8.0 q=26.0 size=    1280KiB time=00:00:01.09 bitrate=9605.6kbits/s speed=0.0655x elapsed=0:00:16.67    \nframe=  133 fps=7.7 q=26.0 size=    1280KiB time=00:00:01.09 bitrate=9605.6kbits/s speed=0.0635x elapsed=0:00:17.19    \nframe=  145 fps=8.2 q=26.0 size=    1280KiB time=00:00:01.19 bitrate=8799.6kbits/s speed=0.0673x elapsed=0:00:17.71    \nframe=  145 fps=8.0 q=26.0 size=    1280KiB time=00:00:01.19 bitrate=8799.6kbits/s speed=0.0654x elapsed=0:00:18.23    \nframe=  157 fps=8.4 q=26.0 size=    1536KiB time=00:00:01.29 bitrate=9741.9kbits/s speed=0.0689x elapsed=0:00:18.73    \nframe=  157 fps=8.2 q=26.0 size=    1536KiB time=00:00:01.29 bitrate=9741.9kbits/s speed=0.0671x elapsed=0:00:19.26    \nframe=  165 fps=8.3 q=26.0 size=    1536KiB time=00:00:01.35 bitrate=9263.8kbits/s speed=0.0687x elapsed=0:00:19.76    \nframe=  177 fps=8.7 q=26.0 size=    1536KiB time=00:00:01.45 bitrate=8628.5kbits/s speed=0.0719x elapsed=0:00:20.28    \nframe=  177 fps=8.5 q=26.0 size=    1536KiB time=00:00:01.45 bitrate=8628.5kbits/s speed=0.0701x elapsed=0:00:20.80    \nframe=  185 fps=8.7 q=27.0 size=    1792KiB time=00:00:01.52 bitrate=9626.5kbits/s speed=0.0715x elapsed=0:00:21.31    \nframe=  185 fps=8.5 q=27.0 size=    1792KiB time=00:00:01.52 bitrate=9626.5kbits/s speed=0.0698x elapsed=0:00:21.84    \nframe=  197 fps=8.8 q=27.0 size=    1792KiB time=00:00:01.62 bitrate=9034.1kbits/s speed=0.0727x elapsed=0:00:22.35    \nframe=  197 fps=8.6 q=27.0 size=    1792KiB time=00:00:01.62 bitrate=9034.1kbits/s speed=0.071x elapsed=0:00:22.87    \nframe=  205 fps=8.8 q=26.0 size=    2048KiB time=00:00:01.69 bitrate=9917.8kbits/s speed=0.0723x elapsed=0:00:23.38    \nframe=  209 fps=8.7 q=26.0 size=    2048KiB time=00:00:01.72 bitrate=9726.1kbits/s speed=0.0722x elapsed=0:00:23.89    \nframe=  217 fps=8.9 q=26.0 size=    2048KiB time=00:00:01.79 bitrate=9364.2kbits/s speed=0.0734x elapsed=0:00:24.41    \nframe=  217 fps=8.7 q=26.0 size=    2048KiB time=00:00:01.79 bitrate=9364.2kbits/s speed=0.0719x elapsed=0:00:24.92    \nframe=  229 fps=9.0 q=26.0 size=    2304KiB time=00:00:01.89 bitrate=9977.8kbits/s speed=0.0743x elapsed=0:00:25.44    \nframe=  233 fps=9.0 q=26.0 size=    2304KiB time=00:00:01.92 bitrate=9805.1kbits/s speed=0.0742x elapsed=0:00:25.96    \nframe=  237 fps=9.0 q=27.0 size=    2304KiB time=00:00:01.95 bitrate=9638.2kbits/s speed=0.074x elapsed=0:00:26.47    \nframe=  241 fps=8.9 q=27.0 size=    2304KiB time=00:00:01.99 bitrate=9476.9kbits/s speed=0.0738x elapsed=0:00:26.98    \nframe=  251 fps=9.1 q=27.0 size=    2304KiB time=00:00:02.07 bitrate=9096.3kbits/s speed=0.0754x elapsed=0:00:27.50    \nframe=  252 fps=9.0 q=27.0 size=    2560KiB time=00:00:02.08 bitrate=10066.5kbits/s speed=0.0743x elapsed=0:00:28.02    \nframe=  263 fps=9.2 q=27.0 size=    2816KiB time=00:00:02.17 bitrate=10606.5kbits/s speed=0.0762x elapsed=0:00:28.53    \nframe=  263 fps=9.1 q=27.0 size=    2816KiB time=00:00:02.17 bitrate=10606.5kbits/s speed=0.0748x elapsed=0:00:29.05    \nframe=  263 fps=8.9 q=27.0 size=    2816KiB time=00:00:02.17 bitrate=10606.5kbits/s speed=0.0736x elapsed=0:00:29.56    \nframe=  270 fps=9.0 q=26.0 size=    2816KiB time=00:00:02.23 bitrate=10329.4kbits/s speed=0.0742x elapsed=0:00:30.08    \nframe=  271 fps=8.9 q=26.0 size=    2816KiB time=00:00:02.24 bitrate=10291.0kbits/s speed=0.0732x elapsed=0:00:30.60    \nframe=  275 fps=8.8 q=26.0 size=    2816KiB time=00:00:02.27 bitrate=10140.2kbits/s speed=0.0731x elapsed=0:00:31.11    \nframe=  286 fps=9.0 q=26.0 size=    3072KiB time=00:00:02.36 bitrate=10633.6kbits/s speed=0.0748x elapsed=0:00:31.63    \nframe=  289 fps=9.0 q=26.0 size=    3072KiB time=00:00:02.39 bitrate=10522.5kbits/s speed=0.0744x elapsed=0:00:32.14    \nframe=  291 fps=8.9 q=26.0 size=    3072KiB time=00:00:02.40 bitrate=10449.6kbits/s speed=0.0737x elapsed=0:00:32.67    \nframe=  298 fps=9.0 q=26.0 size=    3072KiB time=00:00:02.46 bitrate=10202.5kbits/s speed=0.0743x elapsed=0:00:33.19    \nframe=  307 fps=9.1 q=26.0 size=    3328KiB time=00:00:02.54 bitrate=10726.6kbits/s speed=0.0754x elapsed=0:00:33.72    \nframe=  307 fps=9.0 q=26.0 size=    3328KiB time=00:00:02.54 bitrate=10726.6kbits/s speed=0.0742x elapsed=0:00:34.25    \nframe=  313 fps=9.0 q=26.0 size=    3328KiB time=00:00:02.58 bitrate=10553.6kbits/s speed=0.0742x elapsed=0:00:34.79    \nframe=  315 fps=8.9 q=26.0 size=    3328KiB time=00:00:02.60 bitrate=10452.4kbits/s speed=0.0739x elapsed=0:00:35.31    \nframe=  315 fps=8.8 q=26.0 size=    3328KiB time=00:00:02.60 bitrate=10452.4kbits/s speed=0.0728x elapsed=0:00:35.82    \nframe=  324 fps=8.9 q=26.0 size=    3328KiB time=00:00:02.68 bitrate=10160.3kbits/s speed=0.0738x elapsed=0:00:36.34    \nframe=  335 fps=9.1 q=26.0 size=    3584KiB time=00:00:02.77 bitrate=10580.4kbits/s speed=0.0752x elapsed=0:00:36.88    \nframe=  339 fps=9.1 q=26.0 size=    3584KiB time=00:00:02.80 bitrate=10454.8kbits/s speed=0.0751x elapsed=0:00:37.41    \nframe=  343 fps=9.0 q=26.0 size=    3584KiB time=00:00:02.84 bitrate=10332.1kbits/s speed=0.0749x elapsed=0:00:37.92    \nframe=  343 fps=8.9 q=26.0 size=    3584KiB time=00:00:02.84 bitrate=10332.1kbits/s speed=0.0739x elapsed=0:00:38.45    \nframe=  348 fps=8.9 q=26.0 size=    3584KiB time=00:00:02.87 bitrate=10212.4kbits/s speed=0.0737x elapsed=0:00:38.99    \nframe=  352 fps=8.9 q=26.0 size=    3840KiB time=00:00:02.90 bitrate=10816.4kbits/s speed=0.0736x elapsed=0:00:39.51    \nframe=  359 fps=9.0 q=26.0 size=    3840KiB time=00:00:02.97 bitrate=10574.0kbits/s speed=0.0743x elapsed=0:00:40.05    \nframe=  363 fps=8.9 q=26.0 size=    3840KiB time=00:00:03.00 bitrate=10456.8kbits/s speed=0.0741x elapsed=0:00:40.58    \nframe=  367 fps=8.9 q=26.0 size=    3840KiB time=00:00:03.04 bitrate=10342.2kbits/s speed=0.074x elapsed=0:00:41.10    \nframe=  367 fps=8.8 q=26.0 size=    3840KiB time=00:00:03.04 bitrate=10342.2kbits/s speed=0.0731x elapsed=0:00:41.60    \nframe=  367 fps=8.7 q=26.0 size=    3840KiB time=00:00:03.04 bitrate=10342.2kbits/s speed=0.0722x elapsed=0:00:42.13    \nframe=  378 fps=8.9 q=26.0 size=    4096KiB time=00:00:03.13 bitrate=10709.0kbits/s speed=0.0735x elapsed=0:00:42.64    \nframe=  381 fps=8.8 q=26.0 size=    4096KiB time=00:00:03.15 bitrate=10624.2kbits/s speed=0.0732x elapsed=0:00:43.15    \nframe=  387 fps=8.9 q=26.0 size=    4096KiB time=00:00:03.20 bitrate=10458.6kbits/s speed=0.0735x elapsed=0:00:43.67    \nframe=  387 fps=8.8 q=26.0 size=    4096KiB time=00:00:03.20 bitrate=10458.6kbits/s speed=0.0726x elapsed=0:00:44.19    \nframe=  395 fps=8.8 q=26.0 size=    4352KiB time=00:00:03.27 bitrate=10886.1kbits/s speed=0.0732x elapsed=0:00:44.71    \nframe=  401 fps=8.9 q=26.0 size=    4352KiB time=00:00:03.31 bitrate=10749.3kbits/s speed=0.0733x elapsed=0:00:45.23    \nframe=  414 fps=9.0 q=26.0 size=    4352KiB time=00:00:03.43 bitrate=10384.1kbits/s speed=0.075x elapsed=0:00:45.75    \nframe=  415 fps=9.0 q=26.0 size=    4352KiB time=00:00:03.44 bitrate=10358.9kbits/s speed=0.0744x elapsed=0:00:46.28    \nframe=  417 fps=8.9 q=26.0 size=    4608KiB time=00:00:03.45 bitrate=10915.4kbits/s speed=0.0739x elapsed=0:00:46.80    \nframe=  419 fps=8.9 q=26.0 size=    4608KiB time=00:00:03.47 bitrate=10863.1kbits/s speed=0.0734x elapsed=0:00:47.32    \nframe=  419 fps=8.8 q=26.0 size=    4608KiB time=00:00:03.47 bitrate=10863.1kbits/s speed=0.0726x elapsed=0:00:47.83    \nframe=  425 fps=8.8 q=26.0 size=    4608KiB time=00:00:03.51 bitrate=10734.3kbits/s speed=0.0727x elapsed=0:00:48.35    \nframe=  431 fps=8.8 q=26.0 size=    4608KiB time=00:00:03.57 bitrate=10559.2kbits/s speed=0.0731x elapsed=0:00:48.88    \nframe=  439 fps=8.9 q=27.0 size=    4864KiB time=00:00:03.64 bitrate=10941.8kbits/s speed=0.0737x elapsed=0:00:49.40    \nframe=  439 fps=8.8 q=27.0 size=    4864KiB time=00:00:03.64 bitrate=10941.8kbits/s speed=0.0729x elapsed=0:00:49.93    \nframe=  443 fps=8.8 q=27.0 size=    4864KiB time=00:00:03.67 bitrate=10842.5kbits/s speed=0.0728x elapsed=0:00:50.45    \nframe=  443 fps=8.7 q=27.0 size=    4864KiB time=00:00:03.67 bitrate=10842.5kbits/s speed=0.0721x elapsed=0:00:50.97    \nframe=  443 fps=8.6 q=27.0 size=    4864KiB time=00:00:03.67 bitrate=10842.5kbits/s speed=0.0714x elapsed=0:00:51.49    \nframe=  445 fps=8.6 q=27.0 size=    4864KiB time=00:00:03.69 bitrate=10793.6kbits/s speed=0.071x elapsed=0:00:52.01    \nframe=  456 fps=8.7 q=26.0 size=    4864KiB time=00:00:03.78 bitrate=10532.1kbits/s speed=0.072x elapsed=0:00:52.53    \nframe=  463 fps=8.7 q=26.0 size=    4864KiB time=00:00:03.84 bitrate=10372.1kbits/s speed=0.0724x elapsed=0:00:53.05    \nframe=  463 fps=8.6 q=26.0 size=    4864KiB time=00:00:03.84 bitrate=10372.1kbits/s speed=0.0717x elapsed=0:00:53.58    \nframe=  467 fps=8.6 q=26.0 size=    5120KiB time=00:00:03.87 bitrate=10824.1kbits/s speed=0.0716x elapsed=0:00:54.09    \nframe=  471 fps=8.6 q=26.0 size=    5120KiB time=00:00:03.90 bitrate=10731.8kbits/s speed=0.0716x elapsed=0:00:54.61    \nframe=  482 fps=8.7 q=26.0 size=    5120KiB time=00:00:04.00 bitrate=10485.9kbits/s speed=0.0725x elapsed=0:00:55.13    \nframe=  483 fps=8.7 q=26.0 size=    5120KiB time=00:00:04.00 bitrate=10464.1kbits/s speed=0.072x elapsed=0:00:55.64    \nframe=  487 fps=8.7 q=27.0 size=    5120KiB time=00:00:04.04 bitrate=10377.8kbits/s speed=0.072x elapsed=0:00:56.16    \nframe=  492 fps=8.7 q=27.0 size=    5376KiB time=00:00:04.08 bitrate=10785.4kbits/s speed=0.072x elapsed=0:00:56.67    \nframe=  500 fps=8.7 q=27.0 size=    5376KiB time=00:00:04.15 bitrate=10612.2kbits/s speed=0.0726x elapsed=0:00:57.18    \nframe=  502 fps=8.7 q=27.0 size=    5632KiB time=00:00:04.16 bitrate=11073.1kbits/s speed=0.0722x elapsed=0:00:57.70    \nframe=  505 fps=8.7 q=27.0 size=    5632KiB time=00:00:04.19 bitrate=11007.0kbits/s speed=0.072x elapsed=0:00:58.22    \nframe=  505 fps=8.6 q=27.0 size=    5632KiB time=00:00:04.19 bitrate=11007.0kbits/s speed=0.0714x elapsed=0:00:58.74    \nframe=  513 fps=8.7 q=26.0 size=    5632KiB time=00:00:04.25 bitrate=10834.7kbits/s speed=0.0718x elapsed=0:00:59.27    \nframe=  513 fps=8.6 q=26.0 size=    5632KiB time=00:00:04.25 bitrate=10834.7kbits/s speed=0.0712x elapsed=0:00:59.79    \nframe=  518 fps=8.6 q=26.0 size=    5888KiB time=00:00:04.30 bitrate=11217.4kbits/s speed=0.0713x elapsed=0:01:00.30    \nframe=  525 fps=8.6 q=26.0 size=    5888KiB time=00:00:04.35 bitrate=11067.3kbits/s speed=0.0717x elapsed=0:01:00.81    \nframe=  525 fps=8.6 q=26.0 size=    5888KiB time=00:00:04.35 bitrate=11067.3kbits/s speed=0.0711x elapsed=0:01:01.33    \nframe=  529 fps=8.6 q=26.0 size=    5888KiB time=00:00:04.39 bitrate=10983.3kbits/s speed=0.071x elapsed=0:01:01.84    \nframe=  529 fps=8.5 q=26.0 size=    5888KiB time=00:00:04.39 bitrate=10983.3kbits/s speed=0.0704x elapsed=0:01:02.36    \nframe=  541 fps=8.6 q=26.0 size=    6144KiB time=00:00:04.49 bitrate=11205.6kbits/s speed=0.0714x elapsed=0:01:02.87    \nframe=  541 fps=8.5 q=26.0 size=    6144KiB time=00:00:04.49 bitrate=11205.6kbits/s speed=0.0709x elapsed=0:01:03.39    \nframe=  543 fps=8.5 q=26.0 size=    6144KiB time=00:00:04.50 bitrate=11164.2kbits/s speed=0.0705x elapsed=0:01:03.91    \nframe=  549 fps=8.5 q=26.0 size=    6144KiB time=00:00:04.55 bitrate=11041.8kbits/s speed=0.0707x elapsed=0:01:04.44    \nframe=  549 fps=8.5 q=26.0 size=    6144KiB time=00:00:04.55 bitrate=11041.8kbits/s speed=0.0702x elapsed=0:01:04.95    \nframe=  557 fps=8.5 q=26.0 size=    6144KiB time=00:00:04.62 bitrate=10882.6kbits/s speed=0.0706x elapsed=0:01:05.47    \nframe=  561 fps=8.5 q=26.0 size=    6144KiB time=00:00:04.65 bitrate=10804.7kbits/s speed=0.0706x elapsed=0:01:05.98    \nframe=  571 fps=8.6 q=26.0 size=    6400KiB time=00:00:04.74 bitrate=11057.1kbits/s speed=0.0713x elapsed=0:01:06.50    \nframe=  577 fps=8.6 q=26.0 size=    6400KiB time=00:00:04.79 bitrate=10941.7kbits/s speed=0.0715x elapsed=0:01:07.01    \nframe=  577 fps=8.5 q=26.0 size=    6400KiB time=00:00:04.79 bitrate=10941.7kbits/s speed=0.0709x elapsed=0:01:07.54    \nframe=  585 fps=8.6 q=-1.0 size=    6656KiB time=00:00:04.85 bitrate=11223.3kbits/s speed=0.0714x elapsed=0:01:08.05    \nframe=  591 fps=8.6 q=-1.0 size=    6656KiB time=00:00:04.90 bitrate=11108.9kbits/s speed=0.0716x elapsed=0:01:08.59    \n[mp4 @ 000001f167919e00] Starting second pass: moving the moov atom to the beginning of the file\n[out#0/mp4 @ 000001f167919d00] video:6775KiB audio:0KiB subtitle:0KiB other streams:0KiB global headers:0KiB muxing overhead: 0.117323%\nframe=  600 fps=8.7 q=-1.0 Lsize=    6783KiB time=00:00:04.98 bitrate=11149.8kbits/s speed=0.0722x elapsed=0:01:08.98    \n[libx264 @ 000001f16791cdc0] frame I:3     Avg QP:22.33  size:203854\n[libx264 @ 000001f16791cdc0] frame P:151   Avg QP:21.36  size: 33168\n[libx264 @ 000001f16791cdc0] frame B:446   Avg QP:23.73  size:  2952\n[libx264 @ 000001f16791cdc0] consecutive B-frames:  0.8%  0.0%  0.5% 98.7%\n[libx264 @ 000001f16791cdc0] mb I  I16..4:  6.8% 81.7% 11.5%\n[libx264 @ 000001f16791cdc0] mb P  I16..4:  0.0%  0.1%  0.0%  P16..4: 53.6% 15.3% 14.6%  0.0%  0.0%    skip:16.5%\n[libx264 @ 000001f16791cdc0] mb B  I16..4:  0.0%  0.0%  0.0%  B16..8: 35.4%  0.3%  0.0%  direct: 0.1%  skip:64.1%  L0:41.5% L1:58.2% BI: 0.3%\n[libx264 @ 000001f16791cdc0] 8x8 transform intra:82.0% inter:63.2%\n[libx264 @ 000001f16791cdc0] direct mvs  spatial:97.8% temporal:2.2%\n[libx264 @ 000001f16791cdc0] coded y,uvDC,uvAC intra: 87.2% 94.8% 81.5% inter: 6.8% 15.6% 2.1%\n[libx264 @ 000001f16791cdc0] i16 v,h,dc,p: 22%  5%  2% 71%\n[libx264 @ 000001f16791cdc0] i8 v,h,dc,ddl,ddr,vr,hd,vl,hu:  8%  6%  1% 11% 17% 18% 14% 13% 12%\n[libx264 @ 000001f16791cdc0] i4 v,h,dc,ddl,ddr,vr,hd,vl,hu:  5%  4%  1% 12% 19% 18% 15% 13% 12%\n[libx264 @ 000001f16791cdc0] i8c dc,h,v,p: 39% 12% 20% 28%\n[libx264 @ 000001f16791cdc0] Weighted P-Frames: Y:0.0% UV:0.0%\n[libx264 @ 000001f16791cdc0] ref P L0: 41.0% 10.5% 25.7%  9.2% 13.6%\n[libx264 @ 000001f16791cdc0] ref B L0: 56.4% 30.0% 11.0%  2.6%\n[libx264 @ 000001f16791cdc0] ref B L1: 89.9% 10.1%\n[libx264 @ 000001f16791cdc0] kb/s:11098.35\n",
  "seconds": 70.904461145401,
  "probe_out": {}
}